<?xml version="1.0" encoding="UTF-8" standalone="no"?>
<svg
   width="2500"
   height="2500"
   viewBox="2.565 1.969 615.871 616.03733"
   version="1.1"
   id="svg3"
   sodipodi:docname="cardif.svg"
   inkscape:version="1.3 (0e150ed6c4, 2023-07-21)"
   xmlns:inkscape="http://www.inkscape.org/namespaces/inkscape"
   xmlns:sodipodi="http://sodipodi.sourceforge.net/DTD/sodipodi-0.dtd"
   xmlns="http://www.w3.org/2000/svg"
   xmlns:svg="http://www.w3.org/2000/svg">
  <defs
     id="defs3" />
  <sodipodi:namedview
     id="namedview3"
     pagecolor="#ffffff"
     bordercolor="#000000"
     borderopacity="0.25"
     inkscape:showpageshadow="2"
     inkscape:pageopacity="0.0"
     inkscape:pagecheckerboard="0"
     inkscape:deskcolor="#d1d1d1"
     inkscape:zoom="0.3152"
     inkscape:cx="1024.7462"
     inkscape:cy="1199.2386"
     inkscape:window-width="2560"
     inkscape:window-height="1018"
     inkscape:window-x="0"
     inkscape:window-y="0"
     inkscape:window-maximized="1"
     inkscape:current-layer="svg3" />
  <g
     id="g3"
     transform="matrix(0.92288792,0,0,0.92288792,23.944262,237.2035)">
    <path
       fill="#00a770"
       d="M 144.5,143.903 H 2.564 V 1.969 H 144.5 Z"
       id="path1" />
    <path
       fill="#ffffff"
       d="m 113.233,39.3 c -8.76,5.15 -11.439,5.582 -20.965,11.283 5.546,-6.021 7.472,-8.582 10.903,-13.616 -8.777,0.462 -21.542,1.52 -30.65,3.54 7.93,-4.237 23.652,-8.944 31.952,-10.067 -1.92,-2.654 -17.5,-11.095 -21.377,-12.72 12.333,0.959 27.41,5.565 34.716,10.037 2.873,-0.9 5.862,-0.942 11.216,-1.42 -1.363,2.34 -1.42,3.696 -6.67,7.175 1.452,3.896 -2.022,25.283 -4.893,30.944 -0.104,-8.947 -0.884,-20.248 -4.232,-25.156 m -64.136,76.739 c -5.034,-1.866 -8.659,-4.04 -12.649,-7.773 1.195,-3.295 2.558,-5.873 4.785,-9.174 -4.096,0.607 -7.11,1.07 -10.639,1.738 -2.866,-5.024 -4.172,-9.863 -5.63,-16.616 -0.782,7.147 -1.078,12.26 -0.07,17.943 -3.239,0.899 -5.528,1.688 -8.192,2.89 3.733,2.28 6.748,4.04 10.913,5.98 2.24,4.8 4.551,8.048 8.312,11.749 -0.882,-3.15 -1.114,-5.66 -0.755,-8.97 4.65,1.36 8.64,2.07 13.925,2.233 M 62.201,44.893 c -1.566,2.034 -3.385,5.832 -3.877,7.597 12.972,1.757 23.382,8.416 23.382,8.416 -11.346,-2.01 -17.325,-1.76 -21.558,-1.378 -4.207,0.396 -5.069,0.889 -5.069,0.889 C 52.02,67.123 50.183,78.64 50.183,78.64 48.119,73.667 45.137,63.7 45.137,63.7 39.413,66.76 26.249,79.142 26.249,79.142 33.486,64.642 40.831,58.05 40.831,58.05 38.305,55.487 31.676,54.208 26.827,53.997 c 2.52,-1.028 8.975,-2.227 13.935,-2.453 4.965,-0.146 7.97,0.134 7.97,0.134 4.43,-3.494 11.151,-6.441 13.47,-6.785 m 13.761,62.161 c -2.288,3.105 -4.26,5.543 -6.803,8.383 -4.359,1.223 -7.845,1.68 -12.102,1.68 2.612,1.349 5.143,2.154 7.87,2.727 -2.728,2.472 -5.03,4.227 -7.677,5.907 4.437,-1.05 10.27,-2.931 14.61,-5.501 2.268,0.088 4.387,-0.057 5.942,-0.363 -0.405,-1.317 -0.65,-2.3 -0.982,-4.01 4.088,-3.164 7.056,-6.03 10.458,-9.472 -3.622,2.52 -6.745,4.408 -10.935,6.389 -0.18,-1.936 -0.284,-3.568 -0.38,-5.74"
       id="path2" />
    <path
       d="m 196.378,97.683 c 4.724,0 9.876,1.703 9.876,6.049 0,2.364 -2.029,4.494 -5.054,5.533 4.015,1.459 6.333,3.779 6.333,6.804 0,5.297 -6.432,7.09 -12.479,7.09 h -13.847 c 0.331,-3.311 0.418,-8.082 0.418,-13.372 0,-3.497 -0.042,-8.793 -0.376,-12.104 h 15.13 z m -3.877,3.214 c -1.227,0 -2.46,0.097 -3.073,0.192 -0.14,3.308 -0.19,4.916 -0.19,8.696 0,4.583 0,6.282 0.19,9.924 h 3.685 c 4.353,0 6.43,-1.276 6.43,-3.924 0,-2.928 -2.689,-4.297 -6.237,-4.297 h -2.126 l 1.464,-3.831 h 1.561 c 1.795,0 4.205,-0.947 4.205,-3.263 -0.002,-2.456 -2.225,-3.497 -5.909,-3.497 m 43.107,-3.214 c -0.239,2.886 -0.38,9.594 -0.38,12.104 0,2.313 0.054,9.879 0.38,13.372 h -6 l -9.649,-14.225 c -0.797,-1.135 -1.367,-2.224 -1.602,-3.5 v 8.083 c 0,3.068 0.096,7.424 0.373,9.642 h -6.848 c 0.423,-3.876 0.473,-11.151 0.473,-13.372 0,-2.407 -0.146,-9.218 -0.33,-12.104 h 7.796 l 8.13,13.239 c 0.428,0.656 0.57,0.987 0.751,1.56 v -14.8 h 6.906 z m 18.576,0 c 5.535,0 12.2,1.564 12.2,7.469 0,5.199 -4.73,7.8 -14.329,7.8 -0.563,0 -2.127,0 -2.547,-0.048 0.182,3.542 0.14,7.842 0.374,10.255 h -8.366 c 0.332,-3.493 0.43,-9.26 0.43,-13.372 0,-3.643 -0.098,-9.696 -0.43,-12.104 z m -4.583,3.544 c 0,1.66 -0.093,3.36 -0.093,5.015 0,1.222 0.043,2.166 0.093,3.075 0.281,0.035 1.605,0.035 2.454,0.035 2.696,0 6.432,-0.75 6.432,-4.2 0,-3.357 -3.829,-3.976 -6.71,-3.976 -0.385,0 -1.799,0 -2.176,0.05 m 43.149,-3.543 c 5.534,0 12.197,1.564 12.197,7.469 0,5.199 -4.727,7.8 -14.323,7.8 -0.567,0 -2.123,0 -2.547,-0.048 0.19,3.542 0.14,7.842 0.374,10.255 h -8.366 c 0.328,-3.493 0.424,-9.26 0.424,-13.372 0,-3.643 -0.096,-9.696 -0.424,-12.104 z m -4.584,3.544 c 0,1.66 -0.088,3.36 -0.088,5.015 0,1.222 0.043,2.166 0.088,3.075 0.285,0.035 1.611,0.035 2.458,0.035 2.696,0 6.433,-0.75 6.433,-4.2 0,-3.357 -3.833,-3.976 -6.71,-3.976 -0.382,0 -1.799,0 -2.18,0.05 m 31.648,-3.543 c 0.944,3.023 9.357,21.364 11.297,25.476 h -8.365 c -0.33,-0.99 -0.993,-2.36 -2.222,-5.58 -1.278,-0.047 -2.6,-0.047 -4.346,-0.047 -1.705,0 -2.934,0.048 -4.309,0.1 -0.75,2.079 -1.418,3.734 -2.03,5.527 h -7.27 c 1.416,-3.162 9.775,-21.406 11.293,-25.476 z m -0.707,16.027 c -0.99,-2.465 -2.365,-5.531 -3.024,-7.655 -0.71,2.172 -2.22,5.524 -2.979,7.655 0.943,0.042 2.221,0.093 3.074,0.093 1.181,0 1.796,-0.051 2.93,-0.093 m 27.657,-16.027 c 5.58,0 12.241,1.985 12.241,7.896 0,3.165 -2.358,5.435 -6.049,6.903 0.753,1.319 6.948,9.354 8.176,10.676 h -9.12 c -1.609,-3.07 -4.68,-8.362 -7.702,-12.854 3.635,0.47 6.807,-1.275 6.807,-4.77 0,-3.361 -3.879,-4.357 -5.772,-4.357 -0.845,0 -2.45,0 -3.02,0.052 a 224.217,224.217 0 0 0 -0.193,8.559 c 0,2.22 0,9.496 0.428,13.372 h -8.505 c 0.43,-3.78 0.52,-8.27 0.52,-13.372 0,-4.304 -0.049,-9.503 -0.428,-12.104 z m 26.088,0 c -0.182,2.886 -0.33,9.695 -0.33,12.14 0,2.276 0,9.843 0.33,13.336 h -8.407 c 0.421,-3.876 0.47,-11.151 0.47,-13.336 0,-2.398 -0.145,-9.254 -0.33,-12.14 h 8.27 z m 20.662,0 c 4.72,0 9.883,1.703 9.883,6.049 0,2.364 -2.034,4.494 -5.067,5.533 4.026,1.459 6.34,3.779 6.34,6.804 0,5.297 -6.437,7.09 -12.483,7.09 h -13.847 c 0.331,-3.311 0.425,-8.082 0.425,-13.372 0,-3.497 -0.048,-8.793 -0.379,-12.104 z m -3.876,3.214 c -1.232,0 -2.462,0.097 -3.074,0.192 -0.14,3.308 -0.192,4.916 -0.192,8.696 0,4.583 0,6.282 0.192,9.924 h 3.683 c 4.354,0 6.431,-1.276 6.431,-3.924 0,-2.928 -2.692,-4.297 -6.237,-4.297 h -2.124 l 1.463,-3.831 h 1.562 c 1.79,0 4.203,-0.947 4.203,-3.263 -0.004,-2.456 -2.218,-3.497 -5.907,-3.497 m 33.226,-3.214 c 0.948,3.023 9.357,21.364 11.296,25.476 h -8.359 c -0.337,-0.99 -1.005,-2.36 -2.227,-5.58 -1.275,-0.047 -2.6,-0.047 -4.352,-0.047 -1.699,0 -2.932,0.048 -4.3,0.1 -0.756,2.079 -1.418,3.734 -2.035,5.527 h -7.274 c 1.417,-3.162 9.781,-21.406 11.3,-25.476 z m -0.71,16.027 c -0.993,-2.465 -2.365,-5.531 -3.027,-7.655 -0.704,2.172 -2.215,5.524 -2.973,7.655 0.938,0.042 2.221,0.093 3.065,0.093 1.184,0 1.803,-0.051 2.935,-0.093 m 25.145,-16.688 c 3.27,0 6.428,0.475 8.42,1.086 v 6.483 c -2.787,-1.611 -5.537,-2.98 -9.176,-2.98 -2.886,0 -3.068,1.129 -3.068,1.98 0,4.305 14.507,4.347 14.507,12.052 0,5.018 -4.677,8.177 -12.477,8.177 -3.496,0 -6.807,-0.707 -9.075,-1.512 v -6.191 c 5.345,2.5 8.18,3.304 10.635,3.304 1.985,0 3.451,-0.891 3.451,-2.594 0,-4.862 -14.469,-4.395 -14.469,-12.67 0,-4.536 4.541,-7.135 11.252,-7.135 m 51.883,13.751 c -0.145,2.51 -0.28,7.806 -0.385,10.833 -2.738,1.414 -7.042,2.218 -11.2,2.218 -9.45,0 -15.496,-5.961 -15.496,-13.28 0,-7.708 6.324,-13.52 16.677,-13.52 2.365,0 5.91,0.379 8.42,0.99 l -1.842,5.022 c -1.759,-1.096 -4.684,-1.992 -6.669,-1.992 -5.958,0 -8.088,5.29 -8.088,9.545 0,7.139 3.833,9.449 8.137,9.449 0.518,0 2.176,-0.036 2.69,-0.188 0,-3.068 -0.047,-6.992 -0.283,-9.075 h 8.036 z m 17.633,-13.09 c 5.572,0 12.234,1.985 12.234,7.896 0,3.165 -2.364,5.435 -6.052,6.903 0.762,1.319 6.948,9.354 8.182,10.676 h -9.123 c -1.606,-3.07 -4.683,-8.362 -7.71,-12.854 3.646,0.47 6.811,-1.275 6.811,-4.77 0,-3.361 -3.872,-4.357 -5.762,-4.357 -0.85,0 -2.465,0 -3.03,0.052 a 221.48,221.48 0 0 0 -0.184,8.559 c 0,2.22 0,9.496 0.418,13.372 h -8.5 c 0.421,-3.78 0.511,-8.27 0.511,-13.372 0,-4.304 -0.045,-9.503 -0.418,-12.104 z m 29.58,26.185 c -7.94,0 -13.892,-5.436 -13.892,-13.421 0,-8.034 5.952,-13.427 13.892,-13.427 7.896,0 13.854,5.393 13.854,13.427 0,7.986 -5.958,13.42 -13.854,13.42 m 0,-23.584 c -3.685,0 -6,3.593 -6,10.164 0,6.565 2.315,10.063 6,10.063 3.641,0 5.908,-3.496 5.908,-10.063 0.002,-6.571 -2.267,-10.164 -5.908,-10.164 m 25.667,-2.6 c -0.145,1.703 -0.188,3.454 -0.188,5.247 v 12.146 c 0,3.314 1.042,5.248 4.294,5.248 2.838,0 5.631,-1.132 5.631,-6.338 v -12.341 c 0,-2.588 -0.049,-2.874 -0.234,-3.963 h 7.038 c -0.279,2.222 -0.279,6.379 -0.279,10.495 v 7.229 c 0,5.86 -4.116,8.413 -12.24,8.413 -7.373,0 -11.917,-1.56 -11.917,-8.793 v -9.311 c 0,-2.358 -0.097,-6.241 -0.373,-8.034 h 8.268 z m 34.176,0 c 5.53,0 12.195,1.564 12.195,7.469 0,5.199 -4.729,7.8 -14.323,7.8 -0.566,0 -2.13,0 -2.552,-0.048 0.191,3.542 0.145,7.842 0.376,10.255 h -8.362 c 0.331,-3.493 0.424,-9.26 0.424,-13.372 0,-3.643 -0.093,-9.696 -0.424,-12.104 h 12.665 z m -4.584,3.544 c 0,1.66 -0.096,3.36 -0.096,5.015 0,1.222 0.048,2.166 0.096,3.075 0.28,0.035 1.606,0.035 2.456,0.035 2.692,0 6.428,-0.75 6.428,-4.2 0,-3.357 -3.828,-3.976 -6.717,-3.976 -0.376,0 -1.794,0 -2.167,0.05 M 224.728,33.285 c -3.1,-1.83 -6.91,-3.336 -11.84,-3.336 -14.463,0 -19.467,11.604 -19.467,21.372 0,13.589 8.343,20.576 19.547,20.576 6.992,0 12.237,-3.257 16.925,-7.388 l 0.082,11.753 c -4.769,1.908 -10.646,3.572 -19.468,3.572 -20.186,0 -32.819,-12.698 -32.819,-28.673 0,-16.843 13.346,-29.164 35.358,-29.164 5.17,0 10.171,0.797 15.022,1.987 l -3.34,9.3 z m 47.28,-10.175 c 2.148,5.72 20.425,46.405 24.716,55.625 h -15.333 c -0.874,-2.543 -2.704,-7.15 -5.092,-13.107 -3.178,-0.077 -6.434,-0.166 -10.967,-0.166 -4.209,0 -7.387,0.089 -11.046,0.166 a 239.234,239.234 0 0 0 -4.444,13.107 h -13.354 c 3.178,-6.918 21.858,-47.438 24.796,-55.624 h 10.724 z m 1.356,35.207 c -3.656,-8.74 -6.842,-16.218 -7.95,-18.836 -2.543,5.403 -5.323,11.76 -8.267,18.836 2.388,0.075 5.646,0.157 8.267,0.157 2.545,0 5.241,-0.082 7.95,-0.157 M 328.81,23.11 c 11.685,0 25.587,3.264 25.587,16.133 0,7.229 -4.22,12.078 -12.555,14.62 1.188,2.384 14.624,22.798 16.845,24.868 h -16.604 c -3.653,-6.915 -11.922,-20.895 -17.958,-29.948 1.03,0.233 2.546,0.393 4.291,0.393 4.848,0 11.682,-3.496 11.682,-9.933 0,-8.027 -9.702,-9.461 -14.54,-9.461 -2.468,0 -4.855,0.165 -6.043,0.323 -0.317,6.909 -0.48,15.573 -0.48,19.47 0,4.924 0,21.37 0.876,29.156 h -15.49 c 0.79,-7.705 0.947,-17.64 0.947,-29.155 0,-9.701 -0.074,-21.303 -0.79,-26.465 h 24.232 z m 59.075,0 c 23.441,0 32.418,12.318 32.418,27.73 0,15.896 -8.742,27.896 -33.296,27.896 h -20.66 c 0.797,-7.474 0.797,-17.723 0.797,-29.08 0,-5.404 0,-19.311 -0.798,-26.543 l 21.54,-0.002 z m -6.52,6.998 c -0.316,3.648 -0.398,13.104 -0.398,19.547 0,8.104 0,14.459 0.32,22.008 0.8,0.078 2.062,0.238 3.971,0.238 13.435,0 20.431,-4.205 20.431,-21.295 0,-16.285 -7.156,-20.9 -20.748,-20.58 l -3.577,0.082 z m 64.476,-6.998 c -0.473,6.437 -0.79,21.056 -0.79,26.544 0,4.845 0.077,21.372 0.79,29.08 h -15.405 c 0.781,-7.708 0.865,-24.235 0.865,-29.08 0,-5.404 -0.318,-20.107 -0.713,-26.543 h 15.253 z m 55.669,0 v 8.024 c -4.375,-0.233 -15.266,-0.56 -18.912,-0.56 -2.708,0 -5.727,0 -8.828,0.243 -0.15,5.403 -0.15,12.002 -0.234,16.289 l 19.394,-0.314 v 8.66 l -19.394,-0.796 c 0.084,7.07 0.16,18.033 0.875,24.077 h -15.57 c 0.943,-7.708 0.943,-24.235 0.943,-29.08 0,-5.404 -0.393,-20.107 -0.876,-26.542 h 42.602 z"
       id="path3" />
  </g>
</svg>
