<?xml version="1.0" encoding="UTF-8" standalone="no"?>
<!-- Uploaded to: SVG Repo, www.svgrepo.com, Generator: SVG Repo Mixer Tools -->

<svg
   fill="#000000"
   height="800"
   width="800"
   version="1.1"
   viewBox="0 0 512 512"
   enable-background="new 0 0 512 512"
   id="svg3"
   sodipodi:docname="database.svg"
   inkscape:version="1.3 (0e150ed6c4, 2023-07-21)"
   xmlns:inkscape="http://www.inkscape.org/namespaces/inkscape"
   xmlns:sodipodi="http://sodipodi.sourceforge.net/DTD/sodipodi-0.dtd"
   xmlns="http://www.w3.org/2000/svg"
   xmlns:svg="http://www.w3.org/2000/svg">
  <defs
     id="defs3" />
  <sodipodi:namedview
     id="namedview3"
     pagecolor="#ffffff"
     bordercolor="#000000"
     borderopacity="0.25"
     inkscape:showpageshadow="2"
     inkscape:pageopacity="0.0"
     inkscape:pagecheckerboard="0"
     inkscape:deskcolor="#d1d1d1"
     showguides="true"
     inkscape:zoom="0.68235804"
     inkscape:cx="140.6886"
     inkscape:cy="405.94524"
     inkscape:window-width="2560"
     inkscape:window-height="1018"
     inkscape:window-x="0"
     inkscape:window-y="0"
     inkscape:window-maximized="1"
     inkscape:current-layer="g1" />
  <g
     id="g3"
     transform="translate(6.1144334,-154.65238)">
    <g
       id="g2">
      <g
         id="g1">
        <path
           id="rect4"
           style="opacity:1;fill:#000000;fill-opacity:1;stroke:none;stroke-width:19.4577;stroke-linecap:round;stroke-linejoin:round;stroke-opacity:1"
           d="m 246.64651,201.10015 c -11.51948,0.12524 -23.03339,0.75356 -34.49609,1.90429 -10.17873,1.05879 -20.5124,2.55106 -30.56061,4.52805 -13.85667,2.72147 -27.55549,6.34914 -40.87662,11.2084 -13.06101,4.78154 -25.86639,10.84221 -37.45484,18.67019 -9.78426,6.65915 -18.77419,14.75284 -25.38408,24.63674 -1.47875,2.21495 -2.81666,4.5228 -4.02073,6.89803 -0.35758,0.72514 -0.83967,1.71923 -1.21037,2.56361 -2.54456,5.70472 -4.20155,11.81069 -4.81307,18.03014 -0.0865,0.93471 -0.17916,2.03406 -0.22215,2.98615 -0.16848,4.65168 -0.038,9.30903 -0.0803,13.96307 -0.0118,73.7592 -0.0201,147.51858 0.0345,221.27767 0.0383,1.39779 0.12823,2.64006 0.2621,4.03287 0.1146,1.13119 0.29332,2.49941 0.48835,3.63106 1.58432,9.65368 5.69464,18.81688 11.54641,26.63283 8.35442,11.26267 19.66165,19.98836 31.70093,27.00386 15.72964,9.09782 32.80611,15.41801 50.30723,20.13863 13.86768,3.72922 28.06063,6.37855 42.3399,8.18737 20.39031,2.56657 41.10112,3.35541 61.71593,2.4761 8.57226,-0.35048 17.28996,-1.04328 25.81141,-2.01125 11.16804,-1.27797 22.30457,-3.08005 33.25586,-5.48438 15.96947,-3.52862 31.73407,-8.27724 46.76025,-14.91486 13.80745,-6.14986 27.10436,-13.86136 38.18702,-24.23553 7.60235,-7.10529 14.05656,-15.60206 17.97451,-25.29292 0.94139,-2.29727 1.74211,-4.67057 2.34953,-6.96791 1.76041,-6.3466 2.04209,-12.97442 1.98372,-19.52471 -0.0664,-8.88949 0.006,-17.77935 -0.0193,-26.66914 6e-5,-67.07584 -0.004,-134.15198 -0.0452,-201.22762 -0.28448,-9.62005 -3.09111,-19.30933 -7.96167,-27.68723 -3.8047,-6.60736 -8.87073,-12.64785 -14.48568,-17.89234 -2.9115,-2.72734 -5.89638,-5.17851 -9.13141,-7.58239 -4.94969,-3.66575 -10.05524,-6.86457 -15.46994,-9.85232 -4.43323,-2.45663 -9.02118,-4.6771 -13.5991,-6.7163 -12.70034,-5.60879 -26.03593,-9.88626 -39.46261,-13.19454 -15.91369,-3.88608 -32.0812,-6.49412 -48.40915,-7.97317 -5.57763,-0.51624 -11.29015,-0.90899 -16.89566,-1.16325 -6.70139,-0.30787 -13.4108,-0.42715 -20.11902,-0.3792 z m 3.26758,41.73046 c 28.57133,0.0524 57.32578,3.34701 84.65175,11.93715 14.34626,4.58336 28.40868,10.58454 40.70606,19.38648 5.36886,3.94845 10.46272,8.60423 13.60703,14.567 1.94943,3.97388 2.34194,8.81694 0.45878,12.89212 -2.19984,5.29967 -6.43682,9.3908 -10.73754,13.03562 -7.97331,6.56412 -17.22666,11.34912 -26.63556,15.49699 -16.71702,7.18539 -34.47793,11.68605 -52.40494,14.5963 -24.36841,3.88299 -49.18474,4.57745 -73.78444,2.92424 -24.12759,-1.72777 -48.19916,-6.13483 -70.8963,-14.64644 -11.42724,-4.34539 -22.55122,-9.78419 -32.31018,-17.21192 -4.7216,-3.69753 -9.16754,-8.02405 -11.87661,-13.44601 -1.85521,-3.97588 -2.09753,-8.77524 -0.17896,-12.77656 2.30012,-5.30351 6.57625,-9.4058 10.92175,-13.07232 7.781,-6.33537 16.74161,-11.03406 25.8776,-15.0889 16.17934,-7.01606 33.35662,-11.50324 50.71102,-14.46062 17.1343,-2.88536 34.52534,-4.07944 51.89054,-4.13313 z M 117.30667,363.0689 c 2.7625,0.0325 5.00375,1.87136 7.4873,2.82646 11.16634,5.17999 22.8107,9.28501 34.66504,12.57979 2.61169,0.71267 5.38006,1.44936 8.02703,2.09405 14.07831,3.47195 28.35087,5.86059 42.72773,7.42641 18.45169,1.99004 37.12797,2.57656 55.7307,1.77141 6.50561,-0.27511 13.13015,-0.74458 19.6168,-1.3696 9.73482,-0.94307 19.52262,-2.31154 29.0872,-4.05118 9.90142,-1.82954 19.72606,-4.10837 29.41053,-6.96185 11.38418,-3.33802 22.60077,-7.48604 33.33097,-12.63712 1.70702,-0.79735 3.44842,-1.86293 5.4158,-1.61917 2.38908,0.23792 4.71053,1.4252 6.28215,3.24158 1.48801,1.88126 1.70233,4.39098 1.52344,6.69726 -0.0176,12.9787 0.0472,25.96036 -0.0768,38.93713 -0.62376,5.34747 -3.89674,9.93162 -7.59014,13.6624 -7.95222,7.93369 -17.91166,13.45687 -28.02952,18.13393 -18.16613,8.24305 -37.68235,13.1238 -57.34377,16.17499 -25.11771,3.80015 -50.67819,4.2935 -75.98149,2.27505 -23.63961,-2.00939 -47.1938,-6.6472 -69.32691,-15.33227 -10.94807,-4.36821 -21.60366,-9.76903 -30.86253,-17.13009 -4.28951,-3.51381 -8.30952,-7.59393 -10.75532,-12.63162 -1.31506,-2.87616 -1.69925,-6.09101 -1.49121,-9.22428 -0.001,-12.62858 -0.0721,-25.25983 0.0319,-37.88672 0.64775,-3.83258 4.24313,-6.89726 8.1211,-6.97656 z m 0,115.1914 c 2.76317,0.0325 5.00457,1.87237 7.48907,2.82686 12.84129,5.95551 26.42084,10.54015 40.17882,14.04255 19.8053,5.05972 40.11097,8.03017 60.53987,9.38206 26.85101,1.73122 54.01045,0.64339 80.64523,-3.52214 15.89596,-2.51954 31.64886,-6.11056 46.94317,-11.24902 4.50853,-1.51554 9.10337,-3.21559 13.50473,-5.01693 4.56374,-1.81051 8.98336,-3.95758 13.43544,-6.01807 4.13145,-1.26095 9.1788,1.228 10.32031,5.47461 0.52604,2.34163 0.12213,4.75329 0.24805,7.12696 -0.0159,11.96891 0.0442,23.94086 -0.079,35.90779 -0.64115,5.33711 -3.92059,9.90366 -7.62021,13.6176 -7.92599,7.89726 -17.84686,13.39156 -27.91492,18.0702 -17.79211,8.08407 -36.88177,12.96576 -56.13142,16.05091 -24.88125,3.89176 -50.21776,4.51031 -75.31233,2.64002 -23.2583,-1.8069 -46.43505,-6.17875 -68.33365,-14.34487 -11.56118,-4.36521 -22.81803,-9.84502 -32.67729,-17.36212 -4.66335,-3.65364 -9.06852,-7.91102 -11.76442,-13.25748 -1.43986,-3.03046 -1.87109,-6.44394 -1.65493,-9.76737 0.0198,-12.54134 -0.0365,-25.08535 0.0624,-37.625 0.64534,-3.83659 4.24236,-6.89451 8.1211,-6.97656 z" />
      </g>
    </g>
  </g>
</svg>
