<?xml version="1.0" encoding="UTF-8"?>
<!-- Uploaded to: SVG Repo, www.svgrepo.com, Generator: SVG Repo Mixer Tools -->
<svg width="533.74" height="533.74" fill="none" version="1.1" viewBox="0 0 16.012 16.012" xmlns="http://www.w3.org/2000/svg">
 <path d="m5.3571 12.881c0 0.07-0.07 0.12-0.17 0.12s-0.18 0-0.18-0.12 0.08-0.12 0.17-0.12 0.18 0.05 0.18 0.12zm-1-0.15c0 0.07 0 0.15 0.14 0.17 0.03581 0.0172 0.07698 0.0195 0.11447 0.0064 0.0375-0.0131 0.06825-0.0406 0.08553-0.0764 0-0.07 0-0.14-0.14-0.17s-0.18 0-0.2 0.07zm1.42-0.05c-0.09 0-0.15 0.08-0.14 0.16s0.09 0.11 0.19 0.09 0.15-0.09 0.14-0.16-0.09-0.1-0.19-0.09zm2.13-12.68c-1.0546-0.00993-2.1004 0.19331-3.0745 0.59752-0.97415 0.40421-1.8566 1.0011-2.5944 1.7547-0.73779 0.75367-1.3157 1.6486-1.6991 2.6312-0.38338 0.98254-0.56432 2.0324-0.53194 3.0866-0.02792 1.7269 0.48423 3.4194 1.4649 4.8411 0.98067 1.4217 2.3809 2.5016 4.0051 3.0889 0.41 0.07 0.55997-0.19 0.55997-0.4v-2s-2.26 0.5-2.74-1c0 0-0.36-1-0.89-1.21 0 0-0.74-0.52 0.05-0.51 0.25874 0.0349 0.5057 0.13 0.72105 0.2776s0.39309 0.3437 0.51895 0.5724c0.10463 0.2051 0.25007 0.3867 0.42739 0.5335 0.17731 0.1469 0.38277 0.256 0.60376 0.3206 0.221 0.0646 0.45286 0.0834 0.68137 0.0552s0.44884-0.1029 0.64745-0.2193c0.0379-0.4175 0.2179-0.8093 0.51-1.11-1.8-0.21-3.62-0.47-3.62-3.66-0.01912-0.3604 0.03878-0.7207 0.16982-1.0569 0.13105-0.3362 0.33224-0.64069 0.59018-0.89308-0.24336-0.73203-0.21496-1.5272 0.08-2.24 0.68-0.22 2.23 0.89 2.23 0.89 1.3242-0.37347 2.7259-0.37347 4.05 0 0 0 1.55-1.11 2.23-0.89 0.3014 0.7114 0.3298 1.5089 0.08 2.24 0.2671 0.24891 0.4789 0.55108 0.6219 0.88698 0.1429 0.3359 0.2138 0.698 0.2081 1.063 0 3.2-1.9 3.45-3.7 3.66 0.1809 0.2029 0.3186 0.4406 0.4046 0.6985 0.0859 0.2579 0.1184 0.5306 0.0954 0.8015v2.77c-6e-4 0.0675 0.015 0.1342 0.0456 0.1944 0.0307 0.0602 0.0753 0.1122 0.1303 0.1514 0.0549 0.0393 0.1186 0.0647 0.1854 0.0741 0.0669 0.0095 0.1351 0.0026 0.1987-0.0199 1.6213-0.5822 3.0186-1.659 3.9947-3.0783 0.9762-1.4193 1.4817-3.1095 1.4453-4.8317 0.0094-1.0649-0.1939-2.121-0.598-3.1063s-1.0009-1.88-1.7553-2.6317-1.6514-1.3451-2.6382-1.7455-2.0436-0.59984-3.1085-0.58649zm-4.76 11.41v0.17c0.01115 0.0112 0.02439 0.0201 0.03898 0.0261 0.01459 0.0061 0.03022 0.0092 0.04602 0.0092 0.01579 0 0.03143-0.0031 0.04602-0.0092 0.01458-6e-3 0.02783-0.0149 0.03898-0.0261v-0.18c0-0.07-0.13-0.03-0.17 0.01zm-0.35-0.27s0 0.1 0.07 0.13c0.00843 0.0105 0.0191 0.0189 0.03121 0.0247 0.01211 0.0057 0.02537 0.0088 0.03879 0.0088s0.02667-0.0031 0.03878-0.0088c0.01212-0.0058 0.02278-0.0142 0.03122-0.0247 0 0 0-0.1-0.07-0.13s-0.12-0.03-0.14 0zm1 1.18v0.21c0 0.07 0.17 0.08 0.21 0s0-0.14 0-0.21-0.13-0.05-0.17 0zm-0.37-0.49v0.2c0 0.08 0.14 0.11 0.19 0.08 0.02532-0.0291 0.03927-0.0664 0.03927-0.105s-0.01395-0.0759-0.03927-0.105c-0.05-0.08-0.13-0.11-0.19-0.07z" fill="#000"/>
</svg>
