<svg xmlns="http://www.w3.org/2000/svg" viewBox="0 0 303.2 92.12"><defs><style>.cls-1,.cls-2{fill:#fff;}.cls-1{fill-rule:evenodd;}</style></defs><title>Logo_Horizontal_Branco</title><g id="Camada_2" data-name="Camada 2"><g id="Camada_1-2" data-name="Camada 1"><path class="cls-1" d="M155.69,5.72c-3.74.08-6.14,2-7.57,6.13-2,5.72-4,11.45-5.93,17.18s-4,11.61-6.11,17.7c-.26-.69-.43-1.08-.56-1.48-2.58-7.79-5.14-15.58-7.74-23.36-1.32-3.94-2.52-7.94-4.1-11.78-1.19-2.91-4-4.45-7.28-4.44H109v9.21h0V59.26h8.34V19.44l.52,0q2.59,7.71,5.21,15.43l6.2,18.21h0l.11.32.68,2c.09.26.18.5.28.74l1.25,3.56H140L141.24,56c.08-.2.15-.4.23-.61q6-17.34,12.09-34.67c.18-.51.36-1,.53-1.52l.46.11V59.22h8.59s0-28.59,0-44.34h0V5.67h-7.45Z"/><path class="cls-1" d="M293,42.62c2.54,0,4-1,4.05-3.06.4-9.12-3-19-16-20-7.89-.6-15.33,2.61-18.53,11.19a28.36,28.36,0,0,0-1.22,13.07,17.07,17.07,0,0,0,14.46,15.44c7.3,1.21,14.08-.72,20.85-3.17-.4-2.15-.8-4.23-1.21-6.41l-2,.61C288.72,51.79,284,53,279,52.63a9.85,9.85,0,0,1-9.51-10h2.14C278.75,42.63,285.88,42.64,293,42.62ZM278.94,25.83c6.16,0,10,4,9.92,10.6H269.53C269.24,30.5,273.4,25.89,278.94,25.83Z"/><path class="cls-1" d="M200.57,51.36c0-9.83,0-31.1,0-31.1h-8.2v32s-6.88,0-10.21,0-5.65-2.51-6-5.86c-.09-1-.11-2.08-.12-3.13q0-10.5,0-21V20.27h-8.35s-.13,17.63.13,26.23c.23,7.56,4.33,11.72,11.85,12.84,5.45.81,20.86.29,20.86.29C200.57,57.59,200.56,55.25,200.57,51.36Z"/><path class="cls-1" d="M239.36,52.87c-4.26.63-6.8-1.46-6.89-5.76-.08-4,0-8,0-12V27.22h12.21V20.54h-12.2V10.23l-8.21,1.62v8.77H219.3v6.71h5v2.19c0,6.15-.08,12.3.06,18.44.17,7.42,4.6,11.78,12,11.7,3.15,0,6.29-.62,9.6-1-.4-2.49-.73-4.59-1.08-6.79C243,52.24,241.16,52.61,239.36,52.87Z"/><path class="cls-1" d="M205.8,59.66h8.28V10.23l-8.28,1.62Z"/><path class="cls-1" d="M248.58,39.24h7.94V32.58h-7.94Z"/><path class="cls-2" d="M108.43,82.86v-5a3.22,3.22,0,0,1,3.47-3.37h3.19a3.22,3.22,0,0,1,3.47,3.37v2.73c0,.41,0,.74-.62.74h-6.51a1.17,1.17,0,0,1-.93-.45V83a1.39,1.39,0,0,0,1.4,1.4h5.9a.27.27,0,0,1,.26.27v1.71H111.9A3.47,3.47,0,0,1,108.43,82.86Zm3.47-6.46a1.3,1.3,0,0,0-1.4,1.4v1.28a.26.26,0,0,0,.24.26h5.54a.26.26,0,0,0,.26-.26V77.8a1.22,1.22,0,0,0-1.38-1.4Z"/><path class="cls-2" d="M131.91,77.92v8.41h-1.8a.26.26,0,0,1-.26-.27V77.8a1.41,1.41,0,0,0-1.41-1.4h-4.3a.26.26,0,0,0-.26.26v9.4a.27.27,0,0,1-.26.27h-1.81V76a1.54,1.54,0,0,1,1.55-1.54h5.08A3.45,3.45,0,0,1,131.91,77.92Z"/><path class="cls-2" d="M142.89,85.38a2,2,0,0,1-1.64,1H138.4a3.19,3.19,0,0,1-3.33-3.47V77.8a3.21,3.21,0,0,1,3.47-3.37h5.66a.76.76,0,0,1,.76.76V88.65a3.47,3.47,0,0,1-3.47,3.47h-5.66V90.41a.27.27,0,0,1,.27-.26h5.39a1.4,1.4,0,0,0,1.4-1.4ZM137.14,83c0,.76.31,1.4,1.31,1.4h3.28a1.35,1.35,0,0,0,1.16-1.21V76.66a.26.26,0,0,0-.26-.26h-4.09a1.24,1.24,0,0,0-1.4,1.4Z"/><path class="cls-2" d="M148.14,82.86v-5a3.22,3.22,0,0,1,3.47-3.37h3.19a3.22,3.22,0,0,1,3.47,3.37v2.73c0,.41-.05.74-.62.74h-6.51a1.17,1.17,0,0,1-.93-.45V83a1.39,1.39,0,0,0,1.4,1.4h5.9a.27.27,0,0,1,.26.27v1.71h-6.16A3.47,3.47,0,0,1,148.14,82.86Zm3.47-6.46a1.3,1.3,0,0,0-1.4,1.4v1.28a.26.26,0,0,0,.24.26H156a.26.26,0,0,0,.26-.26V77.8a1.22,1.22,0,0,0-1.38-1.4Z"/><path class="cls-2" d="M171.62,77.92v8.41h-1.8a.26.26,0,0,1-.26-.27V77.8a1.41,1.41,0,0,0-1.41-1.4h-4.3a.26.26,0,0,0-.26.26v9.4a.27.27,0,0,1-.26.27h-1.81V76a1.54,1.54,0,0,1,1.55-1.54h5.08A3.45,3.45,0,0,1,171.62,77.92Z"/><path class="cls-2" d="M174.93,68.51h1.8a.26.26,0,0,1,.26.26v6.44a2,2,0,0,1,1.62-.76h3a3,3,0,0,1,3.3,3.33v8.55h-1.81a.27.27,0,0,1-.26-.27V77.82a1.39,1.39,0,0,0-1.4-1.4h-3.33A1.3,1.3,0,0,0,177,77.63v8.7h-1.8a.27.27,0,0,1-.26-.27Z"/><path class="cls-2" d="M197.41,77.78v7.79a.76.76,0,0,1-.76.76h-5.56a3.46,3.46,0,0,1-3.47-3.47v-.74a3.46,3.46,0,0,1,3.47-3.47h4a.25.25,0,0,0,.26-.26V77.8a1.34,1.34,0,0,0-1.42-1.4h-4.73a.26.26,0,0,1-.26-.26V74.45h5A3.21,3.21,0,0,1,197.41,77.78Zm-6.32,6.53h4a.24.24,0,0,0,.23-.26V80.27a.77.77,0,0,1-.61.36h-3.66a1.39,1.39,0,0,0-1.41,1.4v.88A1.39,1.39,0,0,0,191.09,84.31Z"/><path class="cls-2" d="M207,74.45v1.71a.26.26,0,0,1-.26.26h-3a1.15,1.15,0,0,0-1.14,1.07v8.84h-1.81a.27.27,0,0,1-.26-.27V74.45h1.81a.25.25,0,0,1,.26.24v.52a2,2,0,0,1,1.62-.76Z"/><path class="cls-2" d="M211.69,69.39v2h-1.81a.26.26,0,0,1-.26-.26v-2h1.81A.26.26,0,0,1,211.69,69.39Zm0,5.3V86.33h-1.81a.27.27,0,0,1-.26-.27V74.45h1.81A.25.25,0,0,1,211.69,74.69Z"/><path class="cls-2" d="M224.38,77.78v7.79a.75.75,0,0,1-.76.76h-5.56a3.46,3.46,0,0,1-3.47-3.47v-.74a3.46,3.46,0,0,1,3.47-3.47h4a.26.26,0,0,0,.27-.26V77.8a1.34,1.34,0,0,0-1.43-1.4h-4.73a.26.26,0,0,1-.26-.26V74.45h5A3.2,3.2,0,0,1,224.38,77.78Zm-6.32,6.53h4a.25.25,0,0,0,.24-.26V80.27a.8.8,0,0,1-.62.36h-3.66a1.38,1.38,0,0,0-1.4,1.4v.88A1.39,1.39,0,0,0,218.06,84.31Z"/><path class="cls-2" d="M240.16,74.45h2.76a2,2,0,0,1,1.64.76V68.77a.26.26,0,0,1,.26-.26h1.8V85.57a.75.75,0,0,1-.76.76h-5.65a3.46,3.46,0,0,1-3.47-3.47V77.92A3.41,3.41,0,0,1,240.16,74.45ZM238.8,83a1.39,1.39,0,0,0,1.41,1.4h4.08a.24.24,0,0,0,.27-.23V77.63a1.32,1.32,0,0,0-1.15-1.21h-3.2a1.39,1.39,0,0,0-1.41,1.4Z"/><path class="cls-2" d="M252,69.39v2h-1.8a.26.26,0,0,1-.26-.26v-2h1.8A.26.26,0,0,1,252,69.39Zm0,5.3V86.33h-1.8a.27.27,0,0,1-.26-.27V74.45h1.8A.25.25,0,0,1,252,74.69Z"/><path class="cls-2" d="M263,85.38a2,2,0,0,1-1.64,1h-2.85a3.19,3.19,0,0,1-3.32-3.47V77.8a3.2,3.2,0,0,1,3.46-3.37h5.66a.76.76,0,0,1,.76.76V88.65a3.47,3.47,0,0,1-3.47,3.47H256V90.41a.26.26,0,0,1,.26-.26h5.39a1.4,1.4,0,0,0,1.4-1.4ZM257.29,83c0,.76.31,1.4,1.31,1.4h3.28A1.34,1.34,0,0,0,263,83.14V76.66a.26.26,0,0,0-.26-.26h-4.09a1.24,1.24,0,0,0-1.4,1.4Z"/><path class="cls-2" d="M270.43,69.39v2h-1.8a.26.26,0,0,1-.26-.26v-2h1.8A.26.26,0,0,1,270.43,69.39Zm0,5.3V86.33h-1.8a.26.26,0,0,1-.26-.27V74.45h1.8A.25.25,0,0,1,270.43,74.69Z"/><path class="cls-2" d="M279.68,84.62v1.71h-2.4a3.48,3.48,0,0,1-3.47-3.47V68.7h1.81a.26.26,0,0,1,.26.26V74.9a.74.74,0,0,1,.69-.42h2.51v1.7a.24.24,0,0,1-.26.24h-2.94V83a1.38,1.38,0,0,0,1.4,1.4h2.14A.27.27,0,0,1,279.68,84.62Z"/><path class="cls-2" d="M291.51,77.78v7.79a.75.75,0,0,1-.76.76h-5.56a3.47,3.47,0,0,1-3.47-3.47v-.74a3.47,3.47,0,0,1,3.47-3.47h4a.26.26,0,0,0,.26-.26V77.8A1.34,1.34,0,0,0,288,76.4h-4.73a.26.26,0,0,1-.26-.26V74.45h5A3.2,3.2,0,0,1,291.51,77.78Zm-6.32,6.53h4a.25.25,0,0,0,.24-.26V80.27a.8.8,0,0,1-.62.36h-3.66a1.39,1.39,0,0,0-1.4,1.4v.88A1.39,1.39,0,0,0,285.19,84.31Z"/><path class="cls-2" d="M296.77,68.77V86.33H295a.27.27,0,0,1-.26-.27V68.51h1.8A.27.27,0,0,1,296.77,68.77Z"/><path class="cls-2" d="M303.2,15.05a5.67,5.67,0,1,1-5.61-5.52A5.56,5.56,0,0,1,303.2,15.05Zm-9.92,0a4.29,4.29,0,0,0,4.31,4.4,4.22,4.22,0,0,0,4.2-4.37,4.26,4.26,0,1,0-8.51,0Zm3.4,2.86H295.4V12.39a14.43,14.43,0,0,1,2.12-.17,2.92,2.92,0,0,1,1.88.44,1.37,1.37,0,0,1,.57,1.18,1.43,1.43,0,0,1-1.14,1.31v.06c.54.17.81.61,1,1.35a4.87,4.87,0,0,0,.4,1.35h-1.35a4.89,4.89,0,0,1-.43-1.35c-.1-.57-.44-.84-1.15-.84h-.6Zm0-3.1h.61c.7,0,1.28-.23,1.28-.81s-.38-.84-1.18-.84a3.29,3.29,0,0,0-.71.07Z"/><path class="cls-2" d="M88.85,29.86h-.06a57.81,57.81,0,0,0-6,.44,40,40,0,0,0-8.89-13.09L73.67,17l-.14,0A48,48,0,0,0,51.7,30.73c-7.08,7.91-11.9,16.64-13.48,23.72,2-6.92,6.65-15.12,13.3-22.52A48,48,0,0,1,73.07,18.55a38.52,38.52,0,0,1,8.15,12,59.59,59.59,0,0,0-46.7,37.54A58.94,58.94,0,0,1,47,33.22,59.93,59.93,0,0,1,75.1,13.28c3.46-1,2.75,2.18,2.75,2.18a3,3,0,0,0-.36-2.92l-.11-.11A45.92,45.92,0,0,0,50,0H50a59.25,59.25,0,0,0-8.38,5.93A39.88,39.88,0,0,0,18.42,16.6a4,4,0,0,0-.44.68c-3.81,6.41-4.88,14.72-4.05,23a77.75,77.75,0,0,0,2.55,12.45,92.19,92.19,0,0,1-2-12c-1.26-13.45,3.2-20.78,4.37-22.37A2.41,2.41,0,0,1,19.1,18,38.35,38.35,0,0,1,39.55,7.73,59.91,59.91,0,0,0,24.68,29.3a59.29,59.29,0,0,0-1.93,38.81,59.33,59.33,0,0,1-8-53.67c2.2-6.21,5.54-2.08,5.54-2.08-1.64-4.07-4.17-1.6-4.17-1.6l-.28.25a45.85,45.85,0,0,0,14.78,77.9c1.34.47,2.68.88,4,1.2,1.15.29,2.38.55,3.67.76a45.67,45.67,0,0,0,7.6.63,46.86,46.86,0,0,0,8.55-.81A45.88,45.88,0,0,0,88.88,29.93Z"/></g></g></svg>