<?xml version="1.0" encoding="UTF-8"?>
<svg width="264.22" height="264.22" fill="none" version="1.1" viewBox="0 0 264.22 264.22" xmlns="http://www.w3.org/2000/svg">
 <clipPath></clipPath>
 <path d="m132.12 0.010101c-54.4 0-98.49 44.1-98.49 98.49-0.03-1.06 0 1.06 0 0l0.07 132.78c0.53 18.28 15.51 32.94 33.92 32.94s33.53-14.66 34.06-32.94v-34.93h30.43c54.4 0 98.5-43.46 98.5-97.86 0-54.4-44.1-98.49-98.49-98.49zm-30.42 128.35v-29.86c0-16.74 13.68-30.31 30.42-30.31s30.31 13.57 30.31 30.31c0 16.74-13.57 29.86-30.31 29.86l-30.44 0.02z" fill="#000"/>
</svg>
