<?xml version="1.0" encoding="UTF-8" standalone="no"?>
<!-- Uploaded to: SVG Repo, www.svgrepo.com, Generator: SVG Repo Mixer Tools -->

<svg
   fill="#000000"
   width="820.71198"
   height="820.71198"
   viewBox="0 0 51.294498 51.294498"
   version="1.1"
   id="svg1"
   sodipodi:docname="robot.svg"
   inkscape:version="1.3 (0e150ed6c4, 2023-07-21)"
   xmlns:inkscape="http://www.inkscape.org/namespaces/inkscape"
   xmlns:sodipodi="http://sodipodi.sourceforge.net/DTD/sodipodi-0.dtd"
   xmlns="http://www.w3.org/2000/svg"
   xmlns:svg="http://www.w3.org/2000/svg">
  <defs
     id="defs1" />
  <sodipodi:namedview
     id="namedview1"
     pagecolor="#ffffff"
     bordercolor="#000000"
     borderopacity="0.25"
     inkscape:showpageshadow="2"
     inkscape:pageopacity="0.0"
     inkscape:pagecheckerboard="0"
     inkscape:deskcolor="#d1d1d1"
     inkscape:zoom="0.9725"
     inkscape:cx="410.28278"
     inkscape:cy="484.31877"
     inkscape:window-width="2560"
     inkscape:window-height="1024"
     inkscape:window-x="0"
     inkscape:window-y="0"
     inkscape:window-maximized="1"
     inkscape:current-layer="svg1" />
  <path
     id="path1"
     d="M 39.564534,0.99783776 C 38.10849,1.3668501 37.650791,3.0009365 36.617518,3.9135521 36.36541,4.2176436 36.088201,5.0329939 35.640706,4.4665878 33.983712,3.470045 31.977429,3.9908834 30.154777,3.8349513 28.672705,3.8046856 27.06682,4.4357969 26.384846,5.827916 25.875435,6.029261 25.287348,5.789113 24.744612,5.894322 c -2.449349,0 -4.898698,0 -7.348047,0 C 14.486299,1.7174471 7.9990539,0.64890645 3.9650606,3.8040091 0.41287119,6.3687408 -1.0976745,11.538429 0.871762,15.522574 c 0.7030043,1.61262 1.9226214,2.946728 3.2706842,4.028553 3.4024145,6.449034 6.8048288,12.898067 10.2072438,19.347101 -2.65696,0.06651 -5.3429369,-0.186594 -7.9787292,0.198281 -1.9017606,0.634657 -2.7394972,2.87748 -2.4179944,4.735689 0.082271,1.871967 -0.2400004,3.81962 0.2564952,5.637772 0.7341149,1.10483 2.2278419,0.78102 3.3515564,0.799364 10.802427,-0.0022 21.606348,0.01687 32.407812,-0.03321 1.248571,-0.226747 1.554632,-1.747462 1.34961,-2.810547 -0.130335,-2.195628 0.364422,-4.504175 -0.42831,-6.611988 -0.81758,-1.582672 -2.775457,-2.204032 -4.451378,-1.919262 -1.841536,0 -3.683073,0 -5.524609,0 -4.078125,-7.208333 -8.15625,-14.416667 -12.234375,-21.625 2.560547,0 5.121094,0 7.681641,0 0.819079,1.717686 2.946437,2.315941 4.70741,2.015205 1.645199,0.0039 3.549306,0.299655 4.907824,-0.857002 1.089024,1.175787 1.863188,2.689925 3.194307,3.610255 1.260917,0.419169 2.275941,-0.727349 3.350203,-1.1693 2.773261,-1.547022 5.617976,-2.977256 8.318771,-4.646033 1.136841,-1.050438 -0.345479,-3.275534 -1.742187,-2.501953 -2.81204,1.419728 -5.544147,2.999842 -8.301752,4.520171 -0.366599,0.439783 -0.974055,0.201551 -1.112311,-0.301421 -0.748217,-1.060018 -1.762228,-1.989181 -2.328125,-3.142969 0,-2.197786 0,-4.395573 0,-6.593359 0.940755,-1.1901042 1.881511,-2.3802084 2.822266,-3.5703126 3.097888,1.6670924 6.142906,3.4412286 9.306641,4.9746094 1.483513,0.359884 2.531355,-2.0072773 1.197265,-2.8125 C 47.363802,4.9285878 44.038074,3.0657665 40.650549,1.3319996 40.305826,1.1986576 39.94461,0.96410729 39.564534,0.99783776 Z M 9.648518,5.2068222 c 3.703265,-0.1254985 6.971271,3.6099685 6.302734,7.2519528 -0.382454,3.235597 -3.638766,5.891606 -6.9255999,5.475651 C 5.7744035,17.649512 3.0036768,14.576869 3.2695244,11.281601 3.3804719,8.197052 5.9876796,5.41171 9.0949804,5.2317425 9.2785385,5.2131097 9.4642916,5.2172382 9.648518,5.2068222 Z M 32.43758,7.281041 c 0.482666,0.094883 1.434893,-0.1969033 1.479275,0.5227814 0.06815,0.9067695 -0.100008,1.8162425 -0.0011,2.7256536 -0.0012,1.729689 0.0518,3.462408 -0.07778,5.189065 -0.75527,0.402119 -1.636746,-0.0287 -2.445312,0.123047 -0.649398,0.0136 -1.351568,0.166533 -1.957032,-0.146485 -0.232623,-1.109026 0.04073,-2.247223 -0.06694,-3.369522 -4.25e-4,-1.647494 -0.118692,-3.3049999 0.11577,-4.9429776 0.88742,-0.2180406 1.816354,0.026726 2.720987,-0.09723 0.07738,-0.00139 0.154757,-0.00301 0.232137,-0.00433 z m -6.519531,1.9882812 c 0,1.5416668 0,3.0833328 0,4.6249998 -2.320963,0 -4.641927,0 -6.96289,0 0.393011,-1.506991 0.398774,-3.118602 0,-4.6249998 2.320963,0 4.641927,0 6.96289,0 z M 27.15633,38.894322 c -3.05664,0 -6.113281,0 -9.169921,0 -3.119141,-5.920573 -6.238282,-11.841146 -9.3574222,-17.761719 2.5823282,0.312792 5.2631592,-0.551176 7.2226562,-2.25 3.768229,6.670573 7.536458,13.341146 11.304687,20.011719 z M 7.7871899,42.243931 c 8.3430891,0.07254 16.6864091,-0.0085 25.0296861,0.02568 1.641149,0.0026 3.282292,0.01061 4.923439,0.01534 0.518953,0.632942 0.02334,1.508721 0.208984,2.242969 0,0.788802 0,1.577604 0,2.366406 -10.205729,0 -20.411458,0 -30.6171872,0 0.069433,-1.523342 -0.2077966,-3.117764 0.171875,-4.589844 0.087498,-0.04697 0.1887763,-0.04158 0.2832031,-0.06055 z" />
</svg>
