<?xml version="1.0" encoding="UTF-8" standalone="no"?>
<!-- Uploaded to: SVG Repo, www.svgrepo.com, Generator: SVG Repo Mixer Tools -->

<svg
   fill="#000000"
   width="800px"
   height="800px"
   viewBox="0 0 36 36"
   version="1.1"
   preserveAspectRatio="xMidYMid meet"
   id="svg2"
   sodipodi:docname="ruler-pencil.svg"
   inkscape:version="1.3 (0e150ed6c4, 2023-07-21)"
   xmlns:inkscape="http://www.inkscape.org/namespaces/inkscape"
   xmlns:sodipodi="http://sodipodi.sourceforge.net/DTD/sodipodi-0.dtd"
   xmlns="http://www.w3.org/2000/svg"
   xmlns:svg="http://www.w3.org/2000/svg">
  <defs
     id="defs2" />
  <sodipodi:namedview
     id="namedview2"
     pagecolor="#ffffff"
     bordercolor="#000000"
     borderopacity="0.25"
     inkscape:showpageshadow="2"
     inkscape:pageopacity="0.0"
     inkscape:pagecheckerboard="0"
     inkscape:deskcolor="#d1d1d1"
     inkscape:zoom="3.8431003"
     inkscape:cx="544.61238"
     inkscape:cy="615.38857"
     inkscape:window-width="2560"
     inkscape:window-height="1024"
     inkscape:window-x="0"
     inkscape:window-y="0"
     inkscape:window-maximized="1"
     inkscape:current-layer="svg2" />
  <title
     id="title1">ruler-pencil-line</title>
  <path
     id="polygon1"
     class="clr-i-outline clr-i-outline-path-1"
     d="m 8.7304688,16.976562 c 0,3.43099 -1e-7,6.86198 0,10.292969 3.5039062,0 7.0078122,0 10.5117192,0 -0.889566,-0.83679 -1.683594,-1.808111 -2.652344,-2.539062 -1.773438,0 -3.546875,0 -5.320313,0 -0.02354,-1.834932 0.07357,-3.695419 -0.07617,-5.513672 -0.821235,-0.818737 -1.6402514,-1.639708 -2.4628902,-2.457031 -1e-7,0.07227 0,0.144531 0,0.216796 z" />
  <path
     id="path1"
     class="clr-i-outline clr-i-outline-path-2"
     d="M 2.8085938,0.7421875 C 1.7661999,0.89286711 1.6087363,2.164251 1.7304688,3.0136719 1.744783,13.111779 1.6875013,23.211722 1.7773438,33.308594 c 0.2449915,1.016018 1.496511,1.054222 2.3382812,0.960963 10.126746,-0.01625 20.259923,0.05063 30.382621,-0.04992 1.095012,-0.23209 1.219859,-1.918159 0.263565,-2.42169 -1.010478,-1.024415 -2.020703,-2.049078 -3.031342,-3.073334 0,1.001953 0,2.003907 0,3.00586 -9.153646,0 -18.307292,0 -27.4609378,0 10e-8,-1.203776 0,-2.407552 0,-3.611328 0.671875,0 1.3437501,0 2.015625,0 C 6.1244251,27.435505 6.5603094,26.50702 6,25.980469 c -0.5379783,-0.07218 -1.3613826,0.14107 -1.7304687,-0.1 0,-2.003776 -10e-8,-4.007552 -10e-8,-6.011328 0.671875,0 1.3437501,0 2.015625,0 C 6.1244251,19.185505 6.5603094,18.25702 6,17.730469 c -0.5379783,-0.07218 -1.3613826,0.14107 -1.7304687,-0.1 0,-1.920443 -10e-8,-3.840886 -10e-8,-5.761328 0.671875,0 1.3437501,0 2.015625,0 C 6.1244251,11.185505 6.5603094,10.25702 6,9.7304688 c -0.5379783,-0.072178 -1.3613826,0.14107 -1.7304687,-0.1 0,-1.5233073 -10e-8,-3.0466146 -10e-8,-4.5699219 C 9.5838346,10.344551 14.899336,15.627354 20.212891,20.912109 20.159927,19.693832 20.302718,18.447008 20.130859,17.246094 14.681191,11.829192 9.2487012,6.3961723 3.7734375,1.0058594 3.4993493,0.79777387 3.1485031,0.71605035 2.8085938,0.7421875 Z" />
  <path
     id="path2"
     class="clr-i-outline clr-i-outline-path-3"
     d="m 25.671875,3.2246094 c -1.524366,0.1731813 -2.060222,1.8369537 -2.655849,3.0070104 -0.589866,1.1612639 -1.516156,2.2989179 -1.285959,3.688302 0.01536,6.1842462 -0.05037,12.3747252 0.05954,18.5549952 0.260529,1.384067 1.750969,1.731641 3.131044,1.784158 1.418219,-0.0077 3.104286,0.121807 4.225834,-0.298137 1.123158,-0.655928 1.244051,-2.109399 1.123111,-3.272657 -0.0073,-6.038982 0.0257,-12.085982 -0.03522,-18.1199216 C 29.245176,6.9452767 28.590498,5.0885211 27.324219,3.6582031 26.854989,3.3061559 26.251553,3.1631698 25.671875,3.2246094 Z m 2.058594,6.0507812 V 23.730469 H 24.269531 V 9.2636719 l 1.675781,-3.2597657 z m 0,16.6250004 v 1.90039 h -3.460938 v -1.90039 z"
     sodipodi:nodetypes="ccccccccccccccccccccc" />
  <rect
     x="0"
     y="0"
     width="36"
     height="36"
     fill-opacity="0"
     id="rect2" />
</svg>
