<?xml version="1.0" encoding="UTF-8" standalone="no"?>
<!-- Uploaded to: SVG Repo, www.svgrepo.com, Generator: SVG Repo Mixer Tools -->

<svg
   fill="#000000"
   height="800"
   width="800"
   version="1.1"
   viewBox="0 0 512 512"
   enable-background="new 0 0 512 512"
   id="svg6"
   sodipodi:docname="server.svg"
   inkscape:version="1.3 (0e150ed6c4, 2023-07-21)"
   xmlns:inkscape="http://www.inkscape.org/namespaces/inkscape"
   xmlns:sodipodi="http://sodipodi.sourceforge.net/DTD/sodipodi-0.dtd"
   xmlns="http://www.w3.org/2000/svg"
   xmlns:svg="http://www.w3.org/2000/svg">
  <defs
     id="defs6" />
  <sodipodi:namedview
     id="namedview6"
     pagecolor="#ffffff"
     bordercolor="#000000"
     borderopacity="0.25"
     inkscape:showpageshadow="2"
     inkscape:pageopacity="0.0"
     inkscape:pagecheckerboard="0"
     inkscape:deskcolor="#d1d1d1"
     inkscape:zoom="0.965"
     inkscape:cx="381.34715"
     inkscape:cy="368.91192"
     inkscape:window-width="2560"
     inkscape:window-height="1018"
     inkscape:window-x="0"
     inkscape:window-y="0"
     inkscape:window-maximized="1"
     inkscape:current-layer="svg6" />
  <g
     id="g6"
     transform="translate(-1,42.65)">
    <g
       id="g5">
      <path
         d="m 391.1,373.9 -268.2,-0.1 c -38.6,0 -70.1,-31.4 -70.1,-70 0,-38.6 31.4,-70.1 70.1,-70.1 h 268.2 c 38.6,0 70,31.4 70,70.1 0.1,38.6 -31.4,70.1 -70,70.1 z M 52.8,122.9 c 0,-38.6 31.4,-70 70.1,-70 h 268.2 c 38.6,0 70,31.4 70,70 0,38.6 -31.4,70.1 -70,70.1 H 122.9 C 84.3,192.9 52.8,161.5 52.8,122.9 Z m 402.4,90.4 C 483.5,193.2 502,160.1 502,122.8 502,61.7 452.3,12 391.1,12 H 122.9 C 61.7,12 12,61.7 12,122.9 c 0,37.3 18.5,70.4 46.8,90.5 -28.3,20.1 -46.8,53.1 -46.8,90.4 0,61.1 49.7,110.9 110.9,110.9 h 268.2 c 61.1,0 110.9,-49.7 110.9,-110.9 0,-37.3 -18.5,-70.3 -46.8,-90.5 z"
         id="path1"
         sodipodi:nodetypes="ccsssccssssscscsssscsccsc" />
      <path
         d="m 113.3,143.3 h 8.9 c 11.3,0 20.4,-9.1 20.4,-20.4 0,-11.3 -9.1,-20.4 -20.4,-20.4 h -8.9 c -11.3,0 -20.4,9.1 -20.4,20.4 -0.1,11.3 9.1,20.4 20.4,20.4 z"
         id="path2" />
      <path
         d="m 189.8,143.3 h 8.9 c 11.3,0 20.4,-9.1 20.4,-20.4 0,-11.3 -9.1,-20.4 -20.4,-20.4 h -8.9 c -11.3,0 -20.4,9.1 -20.4,20.4 0,11.3 9.1,20.4 20.4,20.4 z"
         id="path3" />
      <path
         d="m 126.7,283.4 h -8.9 c -11.3,0 -20.4,9.1 -20.4,20.4 0,11.3 9.1,20.4 20.4,20.4 h 8.9 c 11.3,0 20.4,-9.1 20.4,-20.4 0,-11.3 -9.2,-20.4 -20.4,-20.4 z"
         id="path4" />
      <path
         d="m 203.2,283.4 h -8.9 c -11.3,0 -20.4,9.1 -20.4,20.4 0,11.3 9.1,20.4 20.4,20.4 h 8.9 c 11.3,0 20.4,-9.1 20.4,-20.4 0,-11.3 -9.1,-20.4 -20.4,-20.4 z"
         id="path5" />
    </g>
  </g>
</svg>
